<?xml version="1.0" standalone="no"?>
<!DOCTYPE svg PUBLIC "-//W3C//DTD SVG 20010904//EN"
 "http://www.w3.org/TR/2001/REC-SVG-20010904/DTD/svg10.dtd">
<svg version="1.0" xmlns="http://www.w3.org/2000/svg"
 width="884.000000pt" height="1024.000000pt" viewBox="0 0 884.000000 1024.000000"
 preserveAspectRatio="xMidYMid meet">

<g transform="translate(0.000000,1024.000000) scale(0.100000,-0.100000)"
fill="#000000" stroke="none">
<path d="M7820 10224 c-56 -15 -447 -146 -1275 -429 -253 -87 -498 -170 -545
-185 -47 -16 -292 -99 -545 -185 -253 -86 -617 -210 -810 -275 -192 -66 -376
-129 -407 -141 l-57 -21 -333 117 c-183 65 -396 140 -473 167 -77 27 -228 80
-335 118 -107 37 -413 145 -680 240 -267 94 -573 202 -680 240 -107 38 -253
89 -325 114 -220 78 -355 125 -355 123 0 -1 -1 -490 -3 -1087 l-2 -1085 -460
-155 c-253 -85 -468 -158 -477 -162 -10 -4 -27 -22 -38 -40 -20 -33 -20 -50
-20 -3123 0 -3005 1 -3091 19 -3121 10 -17 33 -37 51 -44 38 -16 -10 -29 575
162 667 217 3343 1112 3669 1227 l89 31 191 -61 c105 -33 259 -82 341 -109 83
-27 292 -94 465 -149 437 -138 995 -315 1120 -356 127 -41 513 -164 740 -235
91 -29 197 -63 235 -76 39 -12 207 -66 375 -120 168 -53 366 -116 440 -139 74
-24 215 -68 312 -99 97 -31 184 -59 192 -62 14 -6 16 294 16 3078 l0 3083
-122 38 c-68 21 -256 80 -418 132 l-295 93 -5 1220 c-5 1202 -5 1220 -25 1242
-16 19 -76 52 -87 49 -2 0 -28 -7 -58 -15z m-65 -2412 c-3 -3 -58 12 -122 32
-65 21 -203 65 -308 97 -104 33 -215 69 -245 79 -30 11 -228 73 -440 140 -212
67 -410 129 -440 140 -30 10 -143 46 -250 80 -107 34 -305 97 -440 140 -338
108 -547 174 -807 256 -123 38 -223 71 -223 74 0 3 111 43 248 89 136 46 324
110 417 142 94 31 343 116 555 188 212 72 558 189 770 261 212 72 493 167 625
212 132 45 335 114 450 153 l210 72 3 -1075 c1 -591 0 -1077 -3 -1080z m-3545
-1991 c0 -1614 -3 -2937 -6 -2940 -3 -3 -898 -303 -1990 -667 l-1984 -661 0
2943 0 2943 1983 660 c1090 363 1985 659 1990 658 4 -1 7 -1322 7 -2936z
m2384 1213 c138 -42 265 -81 282 -85 30 -9 33 -14 59 -112 26 -99 36 -134 69
-247 9 -30 29 -104 45 -165 16 -60 56 -207 89 -325 121 -429 185 -661 292
-1050 27 -96 83 -299 125 -450 43 -151 86 -309 97 -350 10 -41 32 -118 47
-170 16 -52 61 -214 101 -360 40 -146 89 -323 109 -395 24 -84 33 -131 26
-133 -6 -1 -105 26 -220 61 -116 36 -243 74 -282 86 l-73 21 -19 68 c-11 37
-50 177 -86 312 -37 135 -76 279 -89 319 l-21 75 -305 92 c-168 51 -438 132
-600 182 -216 65 -298 86 -306 78 -6 -6 -41 -85 -78 -176 -154 -374 -179 -430
-194 -430 -9 0 -65 15 -126 34 -61 18 -183 55 -271 82 -88 26 -164 51 -169 55
-8 7 12 60 236 609 160 391 275 673 344 845 36 88 76 185 89 215 13 30 97 235
186 455 88 220 178 441 199 490 45 109 155 379 169 418 6 15 14 27 17 27 4 0
120 -34 258 -76z"/>
<path d="M2380 6938 c-25 -5 -115 -30 -200 -55 -360 -105 -362 -105 -445 -105
-44 1 -105 7 -135 16 -30 8 -57 13 -58 11 -8 -8 32 -124 61 -179 54 -102 190
-197 301 -211 55 -7 181 7 273 31 90 23 251 107 306 159 76 73 100 120 101
190 2 134 -57 175 -204 143z"/>
<path d="M3094 6446 c-78 -30 -228 -99 -335 -154 -131 -68 -223 -109 -284
-126 -49 -14 -184 -58 -300 -99 -278 -98 -443 -151 -750 -242 -66 -20 -174
-45 -240 -56 -185 -30 -169 -21 -161 -82 11 -82 58 -142 147 -187 54 -28 210
-39 290 -20 52 12 159 59 186 82 7 6 13 32 13 59 0 63 9 69 180 113 217 57
246 66 420 122 312 100 487 150 497 140 8 -7 -61 -153 -230 -486 -304 -601
-290 -578 -767 -1254 -80 -112 -418 -567 -429 -576 -5 -4 -65 -74 -137 -160
-73 -86 -239 -273 -283 -318 -28 -29 -50 -56 -47 -60 8 -13 179 8 206 25 105
68 303 271 530 543 57 69 107 127 110 130 16 12 256 318 347 440 86 116 271
380 353 502 14 21 29 38 33 38 5 0 63 -42 129 -92 302 -233 361 -276 429 -314
41 -23 126 -71 189 -106 211 -119 468 -228 536 -228 l37 0 -7 58 c-7 65 -42
194 -61 233 -11 20 -47 39 -167 89 -84 34 -200 83 -258 108 -58 24 -152 64
-210 87 -58 24 -141 60 -185 80 -84 39 -337 148 -368 158 -11 4 -15 12 -11 19
4 7 57 92 117 188 179 286 279 465 465 840 l177 355 0 99 c0 58 -4 100 -10
102 -5 2 -73 -21 -151 -50z"/>
<path d="M6587 6093 c-3 -4 -48 -114 -101 -243 -53 -129 -110 -266 -126 -305
-17 -38 -68 -161 -114 -273 -82 -198 -84 -203 -63 -211 12 -5 60 -20 107 -34
47 -14 168 -51 270 -82 102 -31 228 -69 281 -85 53 -17 101 -30 107 -30 5 0
-1 37 -15 83 -13 45 -37 129 -53 187 -82 298 -281 994 -284 997 -2 3 -6 1 -9
-4z"/>
<!--<path d="M6260 1291 c0 -5 54 -98 120 -207 l119 -198 -62 -39 c-123 -79 -405-->
<!-- -227 -507 -267 -19 -7 -58 -24 -85 -36 -269 -120 -638 -225 -960 -273 -267-->
<!-- -40 -350 -46 -615 -46 -281 0 -416 12 -702 61 -299 50 -682 161 -958 276 -154-->
<!--64 -432 201 -522 256 -145 89 -208 109 -259 82 -53 -29 -63 -132 -17 -171 93-->
<!-- -82 467 -276 728 -378 444 -175 829 -274 1240 -321 52 -6 131 -15 174 -20 44-->
<!-- -6 190 -10 325 -10 250 0 476 20 736 66 366 64 848 223 1180 391 135 68 257-->
<!--134 285 153 41 28 131 71 141 68 6 -2 27 -31 47 -66 101 -171 177 -292 183-->
<!-- -292 4 0 9 8 12 18 5 17 36 106 187 542 95 272 115 338 107 346 -6 7 -99 15-->
<!-- -544 49 -383 29 -353 27 -353 16z"/>-->
</g>
</svg>
